<?xml version="1.0" encoding="UTF-8" standalone="no"?>
<!-- Created with Inkscape (http://www.inkscape.org/) -->

<svg
   xmlns:dc="http://purl.org/dc/elements/1.1/"
   xmlns:cc="http://creativecommons.org/ns#"
   xmlns:rdf="http://www.w3.org/1999/02/22-rdf-syntax-ns#"
   xmlns:svg="http://www.w3.org/2000/svg"
   xmlns="http://www.w3.org/2000/svg"
   xmlns:sodipodi="http://sodipodi.sourceforge.net/DTD/sodipodi-0.dtd"
   xmlns:inkscape="http://www.inkscape.org/namespaces/inkscape"
   width="7.0982547mm"
   height="10.323681mm"
   viewBox="0 0 7.0982547 10.323681"
   version="1.1"
   id="svg8"
   inkscape:version="0.92.1 r15371"
   sodipodi:docname="brush-circled.svg">
  <defs
     id="defs2">
    <inkscape:path-effect
       effect="skeletal"
       id="path-effect5380"
       is_visible="true"
       pattern="m 155.12241,261.52463 c -0.27281,0.19438 -0.81039,0.94466 -0.10546,0.52417 0.37165,-0.26917 1.44375,-0.69064 1.35293,-0.86909 -0.72687,-0.41889 -0.60433,-1.39934 -0.59764,-2.11769 0.0109,-0.75826 0.2244,-1.53084 0.0586,-2.28058 -0.14058,-0.35776 -0.79792,0.1412 -0.15869,-0.0397 0.41931,-0.0195 1.30822,-0.37417 0.57787,0.23483 -0.37334,0.66332 -1.06574,1.6568 -1.86938,0.924 -0.43428,-0.87115 -0.6718,-1.84792 -1.27257,-2.63693 -0.20915,-0.86322 -0.92782,0.75432 -0.15003,0.10594 0.9334,-0.51689 2.09916,-0.79043 3.11488,-0.34521 -0.0627,-0.64949 -0.81321,-0.30121 -0.24244,0.14317 0.32069,0.33032 1.09549,1.32231 0.88649,0.29924 0.0977,-1.82448 0.47837,-3.63055 1.01117,-5.37501 0.33595,-0.0301 -1.44605,-0.9785 -0.46571,-1.12005 0.80073,0.12205 1.54428,0.47802 2.26763,0.82682 -0.69781,-0.53587 -1.86512,-0.14729 -1.95573,0.76558 -0.1813,0.76773 1.02695,1.74217 1.28773,0.6921 0.78318,-0.30361 1.58642,0.57917 1.82942,1.2571 -0.25144,0.17001 -1.44184,-0.91811 -0.65187,-0.33656 1.3087,0.70611 2.69212,1.49261 4.21774,1.50929 1.09163,0.10309 0.97119,-1.15659 1.21023,-1.86712 0.50737,0.6689 1.19149,1.28553 1.37977,2.13068 -0.18606,0.77797 -1.76879,0.90669 -2.03305,0.0961 -0.2208,-0.27261 -0.39616,-0.82487 -0.18244,-0.18051 -0.159,0.93858 0.64747,1.28897 1.25526,1.8416 0.59387,0.44454 -0.14352,0.45723 -0.47667,0.25003 1.34028,1.23321 1.72209,3.20474 1.56303,4.95483 0.0444,0.4947 -0.65407,1.68569 -0.4952,1.72551 0.30791,-1.45532 0.27061,-3.15819 -0.72586,-4.35351 -0.0246,0.40354 -1.00527,0.98006 -1.42944,1.40805 -0.77996,0.65382 -1.58183,1.28264 -2.33362,1.96926 0.0108,1.24481 -0.2618,2.50395 -0.75246,3.64732 -0.17544,0.67167 -0.83156,0.36993 -0.83966,-0.20322 1.17267,0.22523 0.33788,1.61997 -0.27003,2.02819 -0.53058,0.574 -0.75618,-0.13941 -0.39702,-0.56847 -7.7e-4,-0.8622 0.69941,-1.51476 1.2163,-2.13598 0.34729,-0.3559 0.73803,-0.79641 1.12118,-1.03572 -0.23226,0.2079 -0.81487,0.95915 -0.46168,0.2676 -0.068,-0.93309 -2.10725,-0.80445 -1.38363,0.22182 -0.57472,0.76498 -1.57971,0.44583 -1.81404,-0.40493 -0.0961,-0.45995 -0.84949,-0.6402 -0.55255,-0.0161 -5.6e-4,1.27011 -1.56853,0.14729 -1.98652,-0.31782 -0.32543,-0.32338 -0.69861,-0.66098 -0.83736,-1.11262"
       copytype="single_stretched"
       prop_scale="0.07252936"
       scale_y_rel="false"
       spacing="0"
       normal_offset="0"
       tang_offset="0"
       prop_units="false"
       vertical_pattern="false"
       fuse_tolerance="0" />
  </defs>
  <sodipodi:namedview
     id="base"
     pagecolor="#ffffff"
     bordercolor="#666666"
     borderopacity="1.0"
     inkscape:pageopacity="0.0"
     inkscape:pageshadow="2"
     inkscape:zoom="1.979899"
     inkscape:cx="129.96376"
     inkscape:cy="80.595258"
     inkscape:document-units="mm"
     inkscape:current-layer="layer1"
     showgrid="false"
     fit-margin-top="0"
     fit-margin-left="0"
     fit-margin-right="0"
     fit-margin-bottom="0"
     inkscape:window-width="2560"
     inkscape:window-height="1377"
     inkscape:window-x="2552"
     inkscape:window-y="-8"
     inkscape:window-maximized="1" />
  <metadata
     id="metadata5">
    <rdf:RDF>
      <cc:Work
         rdf:about="">
        <dc:format>image/svg+xml</dc:format>
        <dc:type
           rdf:resource="http://purl.org/dc/dcmitype/StillImage" />
        <dc:title></dc:title>
      </cc:Work>
    </rdf:RDF>
  </metadata>
  <g
     inkscape:label="Layer 1"
     inkscape:groupmode="layer"
     id="layer1"
     transform="translate(-134.79016,-194.3203)">
    <path
       style="fill:#000000;stroke:none;stroke-width:0.07252935px;stroke-linecap:butt;stroke-linejoin:miter;stroke-opacity:1"
       d="m 136.67732,196.85378 c 0.27396,-0.40252 0.82116,-1.1986 0.0817,-0.17413 -0.36311,0.50858 -1.09538,2.06871 -1.10869,2.14599 -5.9e-4,0.003 -4e-5,0.004 0.002,6.3e-4 0,0 0,0 0,0 0,0 0,0 0,0 0,0 0,0 0,0 0,0 0,0 0,0 7.9e-4,-0.001 0.002,-0.004 0.003,-0.006 0.48278,-1.22455 0.59116,-0.87928 0.56846,-0.89864 0.0398,0.0425 -0.0773,0.39366 0.10028,0.1662 0.13258,-0.20205 0.64993,-1.19897 0.13027,-0.23788 -0.20013,0.3614 -0.36093,0.73039 -0.49127,1.09059 0,0 0,0 0,0 -0.0755,0.21005 -0.16512,0.45652 -0.0166,-0.006 0,0 0,0 0,0 0.018,-0.0558 0.0407,-0.1234 0.0683,-0.20033 0.17465,-0.55589 0.55917,-1.50028 1.40413,-2.39964 0,0 0,0 0,0 0.0954,-0.10155 0.19472,-0.20407 0.29764,-0.30586 0.39037,-0.35222 1.08708,-0.90248 1.7633,-1.26602 0.0476,-0.0186 0.60097,-0.30186 0.65082,-0.32696 0.6596,-0.33211 -0.37235,0.15621 -0.44125,0.19694 -0.75791,0.4356 -1.39516,1.08355 -2.09495,1.8599 -0.55247,0.62028 -0.99806,1.30738 -1.33243,2.02029 0.0325,-0.0291 0.19927,-0.35536 0.28883,-0.52857 -0.11199,0.21658 0.33022,-0.6585 -0.12221,0.15645 -0.12695,0.22297 -0.27259,0.49986 -0.40538,0.82196 0,0 0,0 0,0 -0.16763,0.41153 -0.28519,0.74711 -0.17774,0.56426 0.0722,0.20218 -0.0443,0.87511 -0.0442,1.71777 -0.0382,0.26009 0.0587,-0.29582 0.19314,-0.73129 0.30865,-0.99989 0.0918,-0.18251 0.0388,0.0246 -0.16042,0.59375 -0.24975,1.148 -0.2165,1.68146 0.0597,0.46663 0.16482,0.91914 0.43553,1.00938 0.035,0.0266 0.0737,0.0485 0.11579,0.0662 -0.0403,-0.018 -0.0791,-0.0401 -0.11496,-0.0678 -0.26549,-0.0903 -0.38357,-0.5297 -0.46126,-1.00625 -0.059,-0.61162 0.0365,-1.14152 0.0169,-1.22138 -4e-5,-0.10769 -0.2219,0.48626 -0.16832,1.23111 0.038,0.32524 0.11569,0.55543 0.18746,0.65892 0.09,0.21249 0.2087,0.37143 0.37312,0.43372 0,0 0,0 0,0 0.33482,0.22772 0.93409,0.13179 1.29633,0.0721 0.20379,-0.0414 0.38438,-0.0923 0.47973,-0.11689 -0.0934,0.0406 -0.26469,0.10244 -0.46987,0.1528 -0.36242,0.076 -0.61758,0.0945 -0.80927,0.0818 -0.1486,-0.01 -0.14662,0.0257 0.29291,-0.008 0.16607,-0.0144 0.33996,-0.044 0.51456,-0.0802 0.62469,-0.15223 1.23168,-0.4621 1.81214,-0.86197 0.57033,-0.39746 1.10766,-0.88374 1.52248,-1.47046 0.33101,-0.4819 0.61315,-1.03508 0.59299,-1.58643 0.001,-0.0986 -0.0106,-0.19735 -0.0341,-0.29491 -0.14615,-0.61742 -0.66431,-0.94122 -0.757,-0.99375 0,0 0,0 0,0 -0.18824,-0.10875 -0.3484,-0.13541 -0.48448,-0.18281 -0.78089,-0.46356 -1.69405,-0.58394 -2.12718,-0.73036 0.41447,-0.0168 1.83663,0.20337 2.66479,0.83837 0.18296,0.14034 0.29791,0.27985 0.34389,0.3513 0.2043,0.26365 0.288,0.51277 0.15439,0.22422 0.47171,0.40418 -0.40101,-0.55914 -0.47093,-0.61402 0,0 0,0 0,0 -0.31392,-0.24613 -0.6779,-0.4332 -1.07821,-0.58472 -0.46544,-0.17249 -0.41288,-0.15205 -0.16685,-0.0809 0.29498,0.0853 0.61819,0.21266 0.8991,0.37523 -0.76255,-0.45464 -1.95494,-0.74108 -2.14443,-0.79772 -0.40394,-0.12074 -0.50705,-0.19281 -0.35472,-0.24211 -0.0728,-0.0446 1.17002,0.0586 0.88892,0.003 -0.28927,0.001 -0.40203,0.0465 -0.25073,0.12522 0.15764,0.082 0.6217,0.16999 1.40683,0.51931 0.0233,-0.006 0.49114,0.1381 0.96515,0.45016 0,0 0,0 0,0 0.47479,0.313 0.76044,0.73801 0.89732,1.1229 0.0555,0.15958 0.0908,0.328 0.10125,0.50285 0.0309,0.68265 -0.24398,1.34302 -0.60704,1.89844 -0.30858,0.47942 -0.68196,0.90462 -1.08572,1.27714 0.0475,0.0362 -0.0759,0.24155 -0.39839,0.54874 -0.14159,0.13647 -0.32852,0.29826 -0.55737,0.46398 -0.25617,0.20898 -1.42733,0.65671 -1.45353,0.62098 0.93685,-0.26057 1.13419,-0.42392 1.03856,-0.34692 -0.10317,0.0831 -0.51575,0.3162 -1.03741,0.48343 0,0 0,0 0,0 -0.15911,0.0583 -0.32657,0.10374 -0.49902,0.13348 -1.10569,0.20698 -1.67533,-0.13652 -0.86785,-0.0418 0.004,-0.0402 0.69487,0.0144 1.33179,-0.2194 0,0 0,0 0,0 0.35098,-0.11586 0.67838,-0.26155 0.98125,-0.42801 0.35658,-0.19281 0.70315,-0.42579 1.04331,-0.69371 0,0 0,0 0,0 0.20937,-0.16309 0.41252,-0.3362 0.60794,-0.51906 -0.18271,0.17468 -0.37911,0.35029 -0.60308,0.52575 0,0 0,0 0,0 -0.37719,0.29886 -0.11853,0.0783 -0.041,0.0125 -0.0835,0.0103 -1.24438,0.73237 -2.02687,0.96244 0,0 0,0 0,0 -0.52168,0.16733 -0.83803,0.21896 -0.2767,0.1312 -0.44681,0.11806 -1.07191,0.15624 -1.68631,-0.14791 -0.91836,-0.56661 -0.97331,-1.55592 -0.95609,-1.79636 0.002,-0.017 0.003,-0.0433 0.005,-0.0773 0,0 0,0 0,0 0.0134,-0.57487 0.0686,-1.20488 0.0194,-0.94799 -0.0676,-0.008 0.2645,-1.57383 0.67263,-2.57018 0.14587,-0.36535 0.29476,-0.65308 0.39195,-0.82741 0.30745,-0.55768 0.65461,-1.02592 0.8627,-1.23739"
       id="path5372"
       inkscape:connector-curvature="0"
       inkscape:path-effect="#path-effect5380"
       inkscape:original-d="m 140.14484,194.20277 c -1.07973,0.40673 -1.94114,1.25016 -2.7306,2.12733 -0.5867,0.65188 -1.24643,1.72809 -1.5558,2.57184 -4.32432,11.79359 13.48877,-0.57777 1.93682,-1.93683" />
  </g>
</svg>
